<mxfile host="app.diagrams.net" modified="2021-06-29T08:30:07.043Z" agent="5.0 (Windows NT 10.0; Win64; x64) AppleWebKit/537.36 (KHTML, like Gecko) Chrome/91.0.4472.77 Safari/537.36" etag="AK4rD-pmw5T16P2zjQMa" version="14.8.0" type="github">
  <diagram id="TACoI5GeGglc_DUF2lSz" name="Page-1">
    <mxGraphModel dx="1038" dy="547" grid="1" gridSize="10" guides="1" tooltips="1" connect="1" arrows="1" fold="1" page="1" pageScale="1" pageWidth="827" pageHeight="1169" math="0" shadow="0">
      <root>
        <mxCell id="0" />
        <mxCell id="1" parent="0" />
        <mxCell id="xLT0wprTwkflzJ4XW9i5-1" value="" style="rounded=0;whiteSpace=wrap;html=1;sketch=1;" vertex="1" parent="1">
          <mxGeometry x="170" y="170" width="720" height="60" as="geometry" />
        </mxCell>
        <mxCell id="xLT0wprTwkflzJ4XW9i5-2" value="Quick Sort 3 Ways" style="text;html=1;strokeColor=none;fillColor=none;align=center;verticalAlign=middle;whiteSpace=wrap;rounded=0;sketch=1;fontFamily=中国式手写风;fontSize=36;fontColor=#FF0000;" vertex="1" parent="1">
          <mxGeometry x="370" y="20" width="290" height="90" as="geometry" />
        </mxCell>
        <mxCell id="xLT0wprTwkflzJ4XW9i5-3" value="V" style="rounded=0;whiteSpace=wrap;html=1;sketch=1;fontFamily=中国式手写风;fontSize=36;fontColor=#FF0000;fillColor=#FF0000;" vertex="1" parent="1">
          <mxGeometry x="170" y="170" width="40" height="60" as="geometry" />
        </mxCell>
        <mxCell id="xLT0wprTwkflzJ4XW9i5-4" value="&amp;lt; V" style="rounded=0;whiteSpace=wrap;html=1;sketch=1;fontFamily=中国式手写风;fontSize=36;fontColor=#FF0000;fillColor=#FF8000;" vertex="1" parent="1">
          <mxGeometry x="210" y="170" width="140" height="60" as="geometry" />
        </mxCell>
        <mxCell id="xLT0wprTwkflzJ4XW9i5-5" value="== V" style="rounded=0;whiteSpace=wrap;html=1;sketch=1;fontFamily=中国式手写风;fontSize=36;fontColor=#FF0000;fillColor=#199C8E;" vertex="1" parent="1">
          <mxGeometry x="350" y="170" width="140" height="60" as="geometry" />
        </mxCell>
        <mxCell id="xLT0wprTwkflzJ4XW9i5-6" value="e" style="rounded=0;whiteSpace=wrap;html=1;sketch=1;fontFamily=中国式手写风;fontSize=36;fontColor=#FF0000;fillColor=#0A43FF;" vertex="1" parent="1">
          <mxGeometry x="490" y="170" width="40" height="60" as="geometry" />
        </mxCell>
        <mxCell id="xLT0wprTwkflzJ4XW9i5-7" value="&amp;gt; V" style="rounded=0;whiteSpace=wrap;html=1;sketch=1;fontFamily=中国式手写风;fontSize=36;fontColor=#FF0000;fillColor=#7F00FF;" vertex="1" parent="1">
          <mxGeometry x="710" y="170" width="180" height="60" as="geometry" />
        </mxCell>
        <mxCell id="xLT0wprTwkflzJ4XW9i5-8" value="" style="triangle;whiteSpace=wrap;html=1;sketch=1;fontFamily=中国式手写风;fontSize=36;fontColor=#FF0000;rotation=-90;fillColor=#FF0000;" vertex="1" parent="1">
          <mxGeometry x="170" y="260" width="30" height="30" as="geometry" />
        </mxCell>
        <mxCell id="xLT0wprTwkflzJ4XW9i5-9" value="" style="triangle;whiteSpace=wrap;html=1;sketch=1;fontFamily=中国式手写风;fontSize=36;fontColor=#FF0000;rotation=-90;fillColor=#FF0000;" vertex="1" parent="1">
          <mxGeometry x="320" y="260" width="30" height="30" as="geometry" />
        </mxCell>
        <mxCell id="xLT0wprTwkflzJ4XW9i5-10" value="" style="triangle;whiteSpace=wrap;html=1;sketch=1;fontFamily=中国式手写风;fontSize=36;fontColor=#FF0000;rotation=-90;fillColor=#FF0000;" vertex="1" parent="1">
          <mxGeometry x="500" y="260" width="30" height="30" as="geometry" />
        </mxCell>
        <mxCell id="xLT0wprTwkflzJ4XW9i5-11" value="" style="triangle;whiteSpace=wrap;html=1;sketch=1;fontFamily=中国式手写风;fontSize=36;fontColor=#FF0000;rotation=-90;fillColor=#FF0000;" vertex="1" parent="1">
          <mxGeometry x="710" y="260" width="30" height="30" as="geometry" />
        </mxCell>
        <mxCell id="xLT0wprTwkflzJ4XW9i5-12" value="" style="triangle;whiteSpace=wrap;html=1;sketch=1;fontFamily=中国式手写风;fontSize=36;fontColor=#FF0000;rotation=-90;fillColor=#FF0000;" vertex="1" parent="1">
          <mxGeometry x="860" y="260" width="30" height="30" as="geometry" />
        </mxCell>
        <mxCell id="xLT0wprTwkflzJ4XW9i5-13" value="l" style="text;html=1;strokeColor=none;fillColor=none;align=center;verticalAlign=middle;whiteSpace=wrap;rounded=0;sketch=1;fontFamily=中国式手写风;fontSize=36;fontColor=#FF0000;" vertex="1" parent="1">
          <mxGeometry x="165" y="320" width="40" height="20" as="geometry" />
        </mxCell>
        <mxCell id="xLT0wprTwkflzJ4XW9i5-14" value="lt" style="text;html=1;strokeColor=none;fillColor=none;align=center;verticalAlign=middle;whiteSpace=wrap;rounded=0;sketch=1;fontFamily=中国式手写风;fontSize=36;fontColor=#FF0000;" vertex="1" parent="1">
          <mxGeometry x="315" y="320" width="40" height="20" as="geometry" />
        </mxCell>
        <mxCell id="xLT0wprTwkflzJ4XW9i5-15" value="i" style="text;html=1;strokeColor=none;fillColor=none;align=center;verticalAlign=middle;whiteSpace=wrap;rounded=0;sketch=1;fontFamily=中国式手写风;fontSize=36;fontColor=#FF0000;" vertex="1" parent="1">
          <mxGeometry x="495" y="320" width="40" height="20" as="geometry" />
        </mxCell>
        <mxCell id="xLT0wprTwkflzJ4XW9i5-16" value="gt" style="text;html=1;strokeColor=none;fillColor=none;align=center;verticalAlign=middle;whiteSpace=wrap;rounded=0;sketch=1;fontFamily=中国式手写风;fontSize=36;fontColor=#FF0000;" vertex="1" parent="1">
          <mxGeometry x="705" y="320" width="40" height="20" as="geometry" />
        </mxCell>
        <mxCell id="xLT0wprTwkflzJ4XW9i5-17" value="r" style="text;html=1;strokeColor=none;fillColor=none;align=center;verticalAlign=middle;whiteSpace=wrap;rounded=0;sketch=1;fontFamily=中国式手写风;fontSize=36;fontColor=#FF0000;" vertex="1" parent="1">
          <mxGeometry x="855" y="320" width="40" height="20" as="geometry" />
        </mxCell>
        <mxCell id="xLT0wprTwkflzJ4XW9i5-18" value="arr[l+1...lt] &amp;lt; v" style="text;html=1;strokeColor=none;fillColor=none;align=center;verticalAlign=middle;whiteSpace=wrap;rounded=0;sketch=1;fontFamily=中国式手写风;fontSize=24;fontColor=#FF0000;" vertex="1" parent="1">
          <mxGeometry x="205" y="120" width="140" height="50" as="geometry" />
        </mxCell>
        <mxCell id="xLT0wprTwkflzJ4XW9i5-19" value="arr[gt...r] &amp;gt; v" style="text;html=1;strokeColor=none;fillColor=none;align=center;verticalAlign=middle;whiteSpace=wrap;rounded=0;sketch=1;fontFamily=中国式手写风;fontSize=24;fontColor=#FF0000;" vertex="1" parent="1">
          <mxGeometry x="720" y="120" width="140" height="50" as="geometry" />
        </mxCell>
        <mxCell id="xLT0wprTwkflzJ4XW9i5-20" value="arr[lt+1...i-1] = v" style="text;html=1;strokeColor=none;fillColor=none;align=center;verticalAlign=middle;whiteSpace=wrap;rounded=0;sketch=1;fontFamily=中国式手写风;fontSize=24;fontColor=#FF0000;" vertex="1" parent="1">
          <mxGeometry x="345" y="120" width="155" height="50" as="geometry" />
        </mxCell>
        <mxCell id="xLT0wprTwkflzJ4XW9i5-21" value="" style="rounded=0;whiteSpace=wrap;html=1;sketch=1;" vertex="1" parent="1">
          <mxGeometry x="170" y="460" width="720" height="60" as="geometry" />
        </mxCell>
        <mxCell id="xLT0wprTwkflzJ4XW9i5-22" value="V" style="rounded=0;whiteSpace=wrap;html=1;sketch=1;fontFamily=中国式手写风;fontSize=36;fontColor=#FF0000;fillColor=#FF0000;" vertex="1" parent="1">
          <mxGeometry x="170" y="460" width="40" height="60" as="geometry" />
        </mxCell>
        <mxCell id="xLT0wprTwkflzJ4XW9i5-23" value="&amp;lt; V" style="rounded=0;whiteSpace=wrap;html=1;sketch=1;fontFamily=中国式手写风;fontSize=36;fontColor=#FF0000;fillColor=#FF8000;" vertex="1" parent="1">
          <mxGeometry x="210" y="460" width="140" height="60" as="geometry" />
        </mxCell>
        <mxCell id="xLT0wprTwkflzJ4XW9i5-24" value="== V" style="rounded=0;whiteSpace=wrap;html=1;sketch=1;fontFamily=中国式手写风;fontSize=36;fontColor=#FF0000;fillColor=#199C8E;" vertex="1" parent="1">
          <mxGeometry x="350" y="460" width="140" height="60" as="geometry" />
        </mxCell>
        <mxCell id="xLT0wprTwkflzJ4XW9i5-25" value="e" style="rounded=0;whiteSpace=wrap;html=1;sketch=1;fontFamily=中国式手写风;fontSize=36;fontColor=#FF0000;fillColor=#0A43FF;" vertex="1" parent="1">
          <mxGeometry x="350" y="460" width="40" height="60" as="geometry" />
        </mxCell>
        <mxCell id="xLT0wprTwkflzJ4XW9i5-26" value="&amp;gt; V" style="rounded=0;whiteSpace=wrap;html=1;sketch=1;fontFamily=中国式手写风;fontSize=36;fontColor=#FF0000;fillColor=#7F00FF;" vertex="1" parent="1">
          <mxGeometry x="710" y="460" width="180" height="60" as="geometry" />
        </mxCell>
        <mxCell id="xLT0wprTwkflzJ4XW9i5-27" value="" style="triangle;whiteSpace=wrap;html=1;sketch=1;fontFamily=中国式手写风;fontSize=36;fontColor=#FF0000;rotation=-90;fillColor=#FF0000;" vertex="1" parent="1">
          <mxGeometry x="170" y="550" width="30" height="30" as="geometry" />
        </mxCell>
        <mxCell id="xLT0wprTwkflzJ4XW9i5-28" value="" style="triangle;whiteSpace=wrap;html=1;sketch=1;fontFamily=中国式手写风;fontSize=36;fontColor=#FF0000;rotation=-90;fillColor=#FF0000;" vertex="1" parent="1">
          <mxGeometry x="320" y="550" width="30" height="30" as="geometry" />
        </mxCell>
        <mxCell id="xLT0wprTwkflzJ4XW9i5-29" value="" style="triangle;whiteSpace=wrap;html=1;sketch=1;fontFamily=中国式手写风;fontSize=36;fontColor=#FF0000;rotation=-90;fillColor=#FF0000;" vertex="1" parent="1">
          <mxGeometry x="500" y="550" width="30" height="30" as="geometry" />
        </mxCell>
        <mxCell id="xLT0wprTwkflzJ4XW9i5-30" value="" style="triangle;whiteSpace=wrap;html=1;sketch=1;fontFamily=中国式手写风;fontSize=36;fontColor=#FF0000;rotation=-90;fillColor=#FF0000;" vertex="1" parent="1">
          <mxGeometry x="710" y="550" width="30" height="30" as="geometry" />
        </mxCell>
        <mxCell id="xLT0wprTwkflzJ4XW9i5-31" value="" style="triangle;whiteSpace=wrap;html=1;sketch=1;fontFamily=中国式手写风;fontSize=36;fontColor=#FF0000;rotation=-90;fillColor=#FF0000;" vertex="1" parent="1">
          <mxGeometry x="860" y="550" width="30" height="30" as="geometry" />
        </mxCell>
        <mxCell id="xLT0wprTwkflzJ4XW9i5-32" value="l" style="text;html=1;strokeColor=none;fillColor=none;align=center;verticalAlign=middle;whiteSpace=wrap;rounded=0;sketch=1;fontFamily=中国式手写风;fontSize=36;fontColor=#FF0000;" vertex="1" parent="1">
          <mxGeometry x="165" y="610" width="40" height="20" as="geometry" />
        </mxCell>
        <mxCell id="xLT0wprTwkflzJ4XW9i5-33" value="lt" style="text;html=1;strokeColor=none;fillColor=none;align=center;verticalAlign=middle;whiteSpace=wrap;rounded=0;sketch=1;fontFamily=中国式手写风;fontSize=36;fontColor=#FF0000;" vertex="1" parent="1">
          <mxGeometry x="315" y="610" width="40" height="20" as="geometry" />
        </mxCell>
        <mxCell id="xLT0wprTwkflzJ4XW9i5-34" value="i" style="text;html=1;strokeColor=none;fillColor=none;align=center;verticalAlign=middle;whiteSpace=wrap;rounded=0;sketch=1;fontFamily=中国式手写风;fontSize=36;fontColor=#FF0000;" vertex="1" parent="1">
          <mxGeometry x="495" y="610" width="40" height="20" as="geometry" />
        </mxCell>
        <mxCell id="xLT0wprTwkflzJ4XW9i5-35" value="gt" style="text;html=1;strokeColor=none;fillColor=none;align=center;verticalAlign=middle;whiteSpace=wrap;rounded=0;sketch=1;fontFamily=中国式手写风;fontSize=36;fontColor=#FF0000;" vertex="1" parent="1">
          <mxGeometry x="705" y="610" width="40" height="20" as="geometry" />
        </mxCell>
        <mxCell id="xLT0wprTwkflzJ4XW9i5-36" value="r" style="text;html=1;strokeColor=none;fillColor=none;align=center;verticalAlign=middle;whiteSpace=wrap;rounded=0;sketch=1;fontFamily=中国式手写风;fontSize=36;fontColor=#FF0000;" vertex="1" parent="1">
          <mxGeometry x="855" y="610" width="40" height="20" as="geometry" />
        </mxCell>
        <mxCell id="xLT0wprTwkflzJ4XW9i5-37" value="arr[l+1...lt] &amp;lt; v" style="text;html=1;strokeColor=none;fillColor=none;align=center;verticalAlign=middle;whiteSpace=wrap;rounded=0;sketch=1;fontFamily=中国式手写风;fontSize=24;fontColor=#FF0000;" vertex="1" parent="1">
          <mxGeometry x="205" y="410" width="140" height="50" as="geometry" />
        </mxCell>
        <mxCell id="xLT0wprTwkflzJ4XW9i5-38" value="arr[gt...r] &amp;gt; v" style="text;html=1;strokeColor=none;fillColor=none;align=center;verticalAlign=middle;whiteSpace=wrap;rounded=0;sketch=1;fontFamily=中国式手写风;fontSize=24;fontColor=#FF0000;" vertex="1" parent="1">
          <mxGeometry x="720" y="410" width="140" height="50" as="geometry" />
        </mxCell>
        <mxCell id="xLT0wprTwkflzJ4XW9i5-39" value="arr[lt+1...i-1] = v" style="text;html=1;strokeColor=none;fillColor=none;align=center;verticalAlign=middle;whiteSpace=wrap;rounded=0;sketch=1;fontFamily=中国式手写风;fontSize=24;fontColor=#FF0000;" vertex="1" parent="1">
          <mxGeometry x="345" y="410" width="155" height="50" as="geometry" />
        </mxCell>
        <mxCell id="xLT0wprTwkflzJ4XW9i5-40" value="e &amp;lt; V" style="text;html=1;strokeColor=none;fillColor=none;align=center;verticalAlign=middle;whiteSpace=wrap;rounded=0;sketch=1;fontFamily=中国式手写风;fontSize=24;fontColor=#FF0000;" vertex="1" parent="1">
          <mxGeometry x="80" y="460" width="60" height="60" as="geometry" />
        </mxCell>
        <mxCell id="xLT0wprTwkflzJ4XW9i5-41" value="" style="rounded=0;whiteSpace=wrap;html=1;sketch=1;fontFamily=中国式手写风;fontSize=36;fontColor=#FF0000;fillColor=#199C8E;" vertex="1" parent="1">
          <mxGeometry x="490" y="460" width="40" height="60" as="geometry" />
        </mxCell>
        <mxCell id="xLT0wprTwkflzJ4XW9i5-42" value="交换&lt;br&gt;维护下标" style="text;html=1;strokeColor=none;fillColor=none;align=center;verticalAlign=middle;whiteSpace=wrap;rounded=0;sketch=1;fontFamily=中国式手写风;fontSize=24;fontColor=#FF0000;" vertex="1" parent="1">
          <mxGeometry x="370" y="560" width="145" height="70" as="geometry" />
        </mxCell>
        <mxCell id="xLT0wprTwkflzJ4XW9i5-45" value="" style="endArrow=classic;startArrow=classic;html=1;fontFamily=中国式手写风;fontSize=24;fontColor=#FF0000;curved=1;strokeColor=#FF0000;" edge="1" parent="1">
          <mxGeometry width="50" height="50" relative="1" as="geometry">
            <mxPoint x="370" y="530" as="sourcePoint" />
            <mxPoint x="510" y="530" as="targetPoint" />
            <Array as="points">
              <mxPoint x="430" y="570" />
            </Array>
          </mxGeometry>
        </mxCell>
        <mxCell id="xLT0wprTwkflzJ4XW9i5-46" value="" style="rounded=0;whiteSpace=wrap;html=1;sketch=1;" vertex="1" parent="1">
          <mxGeometry x="165" y="750" width="720" height="60" as="geometry" />
        </mxCell>
        <mxCell id="xLT0wprTwkflzJ4XW9i5-47" value="V" style="rounded=0;whiteSpace=wrap;html=1;sketch=1;fontFamily=中国式手写风;fontSize=36;fontColor=#FF0000;fillColor=#FF0000;" vertex="1" parent="1">
          <mxGeometry x="165" y="750" width="40" height="60" as="geometry" />
        </mxCell>
        <mxCell id="xLT0wprTwkflzJ4XW9i5-48" value="&amp;lt; V" style="rounded=0;whiteSpace=wrap;html=1;sketch=1;fontFamily=中国式手写风;fontSize=36;fontColor=#FF0000;fillColor=#FF8000;" vertex="1" parent="1">
          <mxGeometry x="205" y="750" width="140" height="60" as="geometry" />
        </mxCell>
        <mxCell id="xLT0wprTwkflzJ4XW9i5-49" value="== V" style="rounded=0;whiteSpace=wrap;html=1;sketch=1;fontFamily=中国式手写风;fontSize=36;fontColor=#FF0000;fillColor=#199C8E;" vertex="1" parent="1">
          <mxGeometry x="345" y="750" width="140" height="60" as="geometry" />
        </mxCell>
        <mxCell id="xLT0wprTwkflzJ4XW9i5-50" value="e" style="rounded=0;whiteSpace=wrap;html=1;sketch=1;fontFamily=中国式手写风;fontSize=36;fontColor=#FF0000;fillColor=#0A43FF;" vertex="1" parent="1">
          <mxGeometry x="665" y="750" width="40" height="60" as="geometry" />
        </mxCell>
        <mxCell id="xLT0wprTwkflzJ4XW9i5-51" value="&amp;gt; V" style="rounded=0;whiteSpace=wrap;html=1;sketch=1;fontFamily=中国式手写风;fontSize=36;fontColor=#FF0000;fillColor=#7F00FF;" vertex="1" parent="1">
          <mxGeometry x="705" y="750" width="180" height="60" as="geometry" />
        </mxCell>
        <mxCell id="xLT0wprTwkflzJ4XW9i5-52" value="" style="triangle;whiteSpace=wrap;html=1;sketch=1;fontFamily=中国式手写风;fontSize=36;fontColor=#FF0000;rotation=-90;fillColor=#FF0000;" vertex="1" parent="1">
          <mxGeometry x="165" y="840" width="30" height="30" as="geometry" />
        </mxCell>
        <mxCell id="xLT0wprTwkflzJ4XW9i5-53" value="" style="triangle;whiteSpace=wrap;html=1;sketch=1;fontFamily=中国式手写风;fontSize=36;fontColor=#FF0000;rotation=-90;fillColor=#FF0000;" vertex="1" parent="1">
          <mxGeometry x="315" y="840" width="30" height="30" as="geometry" />
        </mxCell>
        <mxCell id="xLT0wprTwkflzJ4XW9i5-54" value="" style="triangle;whiteSpace=wrap;html=1;sketch=1;fontFamily=中国式手写风;fontSize=36;fontColor=#FF0000;rotation=-90;fillColor=#FF0000;" vertex="1" parent="1">
          <mxGeometry x="495" y="840" width="30" height="30" as="geometry" />
        </mxCell>
        <mxCell id="xLT0wprTwkflzJ4XW9i5-55" value="" style="triangle;whiteSpace=wrap;html=1;sketch=1;fontFamily=中国式手写风;fontSize=36;fontColor=#FF0000;rotation=-90;fillColor=#FF0000;" vertex="1" parent="1">
          <mxGeometry x="705" y="840" width="30" height="30" as="geometry" />
        </mxCell>
        <mxCell id="xLT0wprTwkflzJ4XW9i5-56" value="" style="triangle;whiteSpace=wrap;html=1;sketch=1;fontFamily=中国式手写风;fontSize=36;fontColor=#FF0000;rotation=-90;fillColor=#FF0000;" vertex="1" parent="1">
          <mxGeometry x="855" y="840" width="30" height="30" as="geometry" />
        </mxCell>
        <mxCell id="xLT0wprTwkflzJ4XW9i5-57" value="l" style="text;html=1;strokeColor=none;fillColor=none;align=center;verticalAlign=middle;whiteSpace=wrap;rounded=0;sketch=1;fontFamily=中国式手写风;fontSize=36;fontColor=#FF0000;" vertex="1" parent="1">
          <mxGeometry x="160" y="900" width="40" height="20" as="geometry" />
        </mxCell>
        <mxCell id="xLT0wprTwkflzJ4XW9i5-58" value="lt" style="text;html=1;strokeColor=none;fillColor=none;align=center;verticalAlign=middle;whiteSpace=wrap;rounded=0;sketch=1;fontFamily=中国式手写风;fontSize=36;fontColor=#FF0000;" vertex="1" parent="1">
          <mxGeometry x="310" y="900" width="40" height="20" as="geometry" />
        </mxCell>
        <mxCell id="xLT0wprTwkflzJ4XW9i5-59" value="i" style="text;html=1;strokeColor=none;fillColor=none;align=center;verticalAlign=middle;whiteSpace=wrap;rounded=0;sketch=1;fontFamily=中国式手写风;fontSize=36;fontColor=#FF0000;" vertex="1" parent="1">
          <mxGeometry x="490" y="900" width="40" height="20" as="geometry" />
        </mxCell>
        <mxCell id="xLT0wprTwkflzJ4XW9i5-60" value="gt" style="text;html=1;strokeColor=none;fillColor=none;align=center;verticalAlign=middle;whiteSpace=wrap;rounded=0;sketch=1;fontFamily=中国式手写风;fontSize=36;fontColor=#FF0000;" vertex="1" parent="1">
          <mxGeometry x="700" y="900" width="40" height="20" as="geometry" />
        </mxCell>
        <mxCell id="xLT0wprTwkflzJ4XW9i5-61" value="r" style="text;html=1;strokeColor=none;fillColor=none;align=center;verticalAlign=middle;whiteSpace=wrap;rounded=0;sketch=1;fontFamily=中国式手写风;fontSize=36;fontColor=#FF0000;" vertex="1" parent="1">
          <mxGeometry x="850" y="900" width="40" height="20" as="geometry" />
        </mxCell>
        <mxCell id="xLT0wprTwkflzJ4XW9i5-62" value="arr[l+1...lt] &amp;lt; v" style="text;html=1;strokeColor=none;fillColor=none;align=center;verticalAlign=middle;whiteSpace=wrap;rounded=0;sketch=1;fontFamily=中国式手写风;fontSize=24;fontColor=#FF0000;" vertex="1" parent="1">
          <mxGeometry x="200" y="700" width="140" height="50" as="geometry" />
        </mxCell>
        <mxCell id="xLT0wprTwkflzJ4XW9i5-63" value="arr[gt...r] &amp;gt; v" style="text;html=1;strokeColor=none;fillColor=none;align=center;verticalAlign=middle;whiteSpace=wrap;rounded=0;sketch=1;fontFamily=中国式手写风;fontSize=24;fontColor=#FF0000;" vertex="1" parent="1">
          <mxGeometry x="715" y="700" width="140" height="50" as="geometry" />
        </mxCell>
        <mxCell id="xLT0wprTwkflzJ4XW9i5-64" value="arr[lt+1...i-1] = v" style="text;html=1;strokeColor=none;fillColor=none;align=center;verticalAlign=middle;whiteSpace=wrap;rounded=0;sketch=1;fontFamily=中国式手写风;fontSize=24;fontColor=#FF0000;" vertex="1" parent="1">
          <mxGeometry x="340" y="700" width="155" height="50" as="geometry" />
        </mxCell>
        <mxCell id="xLT0wprTwkflzJ4XW9i5-65" value="e &amp;gt; V" style="text;html=1;strokeColor=none;fillColor=none;align=center;verticalAlign=middle;whiteSpace=wrap;rounded=0;sketch=1;fontFamily=中国式手写风;fontSize=24;fontColor=#FF0000;" vertex="1" parent="1">
          <mxGeometry x="75" y="750" width="60" height="60" as="geometry" />
        </mxCell>
        <mxCell id="xLT0wprTwkflzJ4XW9i5-67" value="交换&lt;br&gt;维护下标" style="text;html=1;strokeColor=none;fillColor=none;align=center;verticalAlign=middle;whiteSpace=wrap;rounded=0;sketch=1;fontFamily=中国式手写风;fontSize=24;fontColor=#FF0000;" vertex="1" parent="1">
          <mxGeometry x="535" y="850" width="145" height="70" as="geometry" />
        </mxCell>
        <mxCell id="xLT0wprTwkflzJ4XW9i5-68" value="" style="endArrow=classic;startArrow=classic;html=1;fontFamily=中国式手写风;fontSize=24;fontColor=#FF0000;curved=1;strokeColor=#FF0000;" edge="1" parent="1">
          <mxGeometry width="50" height="50" relative="1" as="geometry">
            <mxPoint x="500" y="820" as="sourcePoint" />
            <mxPoint x="690" y="820" as="targetPoint" />
            <Array as="points">
              <mxPoint x="600" y="860" />
            </Array>
          </mxGeometry>
        </mxCell>
      </root>
    </mxGraphModel>
  </diagram>
</mxfile>
